Coordinates
version=1
nRows=11
nColumns=40
inDegrees=yes

Units are S.I. units (second, meters, Newtons, ...)
Angles are in degrees.

endheader
time	pelvis_tilt	pelvis_list	pelvis_rotation	pelvis_tx	pelvis_ty	pelvis_tz	hip_flexion_r	hip_adduction_r	hip_rotation_r	knee_angle_r	knee_angle_r_beta	ankle_angle_r	subtalar_angle_r	mtp_angle_r	hip_flexion_l	hip_adduction_l	hip_rotation_l	knee_angle_l	knee_angle_l_beta	ankle_angle_l	subtalar_angle_l	mtp_angle_l	lumbar_extension	lumbar_bending	lumbar_rotation	arm_flex_r	arm_add_r	arm_rot_r	elbow_flex_r	pro_sup_r	wrist_flex_r	wrist_dev_r	arm_flex_l	arm_add_l	arm_rot_l	elbow_flex_l	pro_sup_l	wrist_flex_l	wrist_dev_l
      1.65000000	      3.63052441	     -6.92547012	      4.36175214	      0.73799056	      0.90050164	      1.40967267	      8.55263897	      5.27543582	    -15.61091594	    -24.57595206	     -0.42893128	      7.37465246	     -2.97253010	      0.79367332	      8.41606945	      8.42298951	      5.83704535	    -59.98904144	     -1.04700629	     -2.98355527	      6.69789000	    -10.27655909	     -4.03678834	     10.74820098	      2.10603051	     -1.18366307	    -13.97765335	     26.29322070	     14.89374700	     89.95437384	      0.00000000	      0.00000000	      9.19612488	      6.01615190	    -11.02500403	     40.16411943	     89.95437384	      0.00000000	      0.00000000
      1.66000000	      3.70178948	     -6.68553543	      4.34930932	      0.75076990	      0.90138281	      1.40971657	      7.16642571	      5.19019008	    -15.59523005	    -23.95592137	     -0.41810970	      7.99878154	     -2.76629864	      0.66642615	     10.07370545	      7.93872918	      5.90601355	    -59.77662629	     -1.04329894	     -1.81625760	      6.06411719	    -10.55315015	     -4.24392726	     10.37028628	      2.54343474	     -0.21911891	    -14.00921455	     26.44957801	     14.92001683	     89.95437384	      0.00000000	      0.00000000	      8.70869687	      5.88885295	    -11.36965303	     38.52054901	     89.95437384	      0.00000000	      0.00000000
      1.67000000	      4.33612489	     -6.45909928	      4.22534149	      0.76424828	      0.90296861	      1.41016634	      4.93386636	      5.18725329	    -15.59855130	    -22.96197535	     -0.40076207	      8.52091322	     -2.06142908	      0.32180412	     10.75808990	      7.71765513	      6.41696962	    -58.90795676	     -1.02813780	     -0.60898555	      4.71846456	    -11.66935808	     -5.07256439	      9.98816473	      3.22344374	      0.63296523	    -14.19968902	     27.10477845	     15.35057679	     89.95437384	      0.00000000	      0.00000000	      8.19776443	      5.98430072	    -12.18965792	     37.05336553	     89.95437384	      0.00000000	      0.00000000
      1.68000000	      4.30077861	     -6.28656317	      4.20858557	      0.77675337	      0.90327817	      1.41029498	      3.74658911	      5.13059197	    -15.62863347	    -22.42120615	     -0.39132387	      9.05030952	     -1.91293880	      0.19844374	     12.42294960	      7.30225992	      6.56977888	    -58.05444228	     -1.01324116	      0.51999261	      4.29690748	    -11.87197280	     -5.19311432	      9.64657226	      3.60184466	      1.66732179	    -14.23498243	     27.20006720	     15.41907335	     89.95437384	      0.00000000	      0.00000000	      7.63503185	      5.93634598	    -12.47635071	     35.37671971	     89.95437384	      0.00000000	      0.00000000
      1.69000000	      4.79206104	     -6.00315513	      4.02709551	      0.79011781	      0.90431566	      1.41087614	      1.73821394	      5.01631728	    -15.65615083	    -21.54897088	     -0.37610049	      9.50975036	     -1.19115797	     -0.14173954	     13.07711641	      7.00804601	      7.23206670	    -56.47975098	     -0.98575762	      1.56301158	      3.48808998	    -12.57904501	     -5.86318081	      9.14174376	      4.22106140	      2.53257428	    -14.35393384	     27.52778414	     15.90895761	     89.95437384	      0.00000000	      0.00000000	      7.06954751	      6.03078123	    -12.93766068	     33.74382152	     89.95437384	      0.00000000	      0.00000000
      1.70000000	      5.06837159	     -5.77750435	      4.04533364	      0.80293815	      0.90474356	      1.41065470	      0.13880564	      4.74167418	    -16.37610090	    -20.93403292	     -0.36536780	      9.87798363	      0.14459979	     -2.11622498	     14.03668974	      6.55539864	      7.50754500	    -54.68710358	     -0.95447002	      1.95992279	      3.59490745	    -15.26404121	     -6.29850026	      8.76664970	      4.51139685	      3.61286828	    -14.53917318	     28.18627247	     16.12190430	     89.95437384	      0.00000000	      0.00000000	      6.45461691	      6.08562958	    -13.31898007	     32.04978421	     89.95437384	      0.00000000	      0.00000000
      1.71000000	      4.83045736	     -5.71081317	      3.98128996	      0.81542886	      0.90406256	      1.41086149	     -0.82010703	      4.75968808	    -16.55974705	    -20.35950867	     -0.35534046	     10.37882214	      0.18705477	     -2.18711286	     15.68547981	      6.33548408	      7.85561747	    -53.01648401	     -0.92531220	      2.65444174	      3.39495814	    -15.20262293	     -6.17432820	      8.49797304	      4.74170851	      4.62019472	    -14.60060117	     28.13618396	     16.40049550	     89.95437384	      0.00000000	      0.00000000	      5.70568235	      6.20004573	    -13.54912200	     30.46257925	     89.95437384	      0.00000000	      0.00000000
      1.72000000	      5.47898408	     -5.37131496	      3.88456557	      0.82854306	      0.90475283	      1.41080704	     -3.03237746	      4.53571504	    -16.62156176	    -19.37888958	     -0.33822543	     10.72077605	      1.07770218	     -2.62696506	     15.86660780	      5.84563369	      8.36108027	    -50.54253825	     -0.88213370	      3.41020614	      2.99739726	    -15.48235289	     -7.05086765	      7.98093884	      5.17947323	      5.58907139	    -14.73296256	     28.07231032	     16.93231010	     89.95437384	      0.00000000	      0.00000000	      5.23408265	      6.25390940	    -13.89441407	     28.48722460	     89.95437384	      0.00000000	      0.00000000
      1.73000000	      5.31467525	     -5.36522930	      3.88281967	      0.84111341	      0.90372621	      1.41078907	     -4.04987572	      4.61395324	    -16.81172211	    -18.86737440	     -0.32929780	     11.27376776	      1.35641213	     -2.79833985	     17.21397908	      5.64969236	      8.60368821	    -48.35559331	     -0.84396431	      3.97431542	      2.76235092	    -15.44644959	     -6.97030339	      7.79492157	      5.38312229	      6.55787646	    -14.83628565	     28.02093113	     17.25995101	     89.95437384	      0.00000000	      0.00000000	      4.59307029	      6.31013963	    -14.12012545	     26.53719900	     89.95437384	      0.00000000	      0.00000000
      1.74000000	      5.11402086	     -5.44261113	      3.74855940	      0.85360742	      0.90237646	      1.41095718	     -4.90324990	      4.72552450	    -17.07212285	    -18.57574668	     -0.32420794	     11.69486958	      1.50770822	     -2.90862776	     18.52548982	      5.66005368	      9.10888411	    -45.96953421	     -0.80231973	      4.40261543	      2.64424327	    -15.31126320	     -6.88301196	      7.68252381	      5.62147150	      7.54366335	    -14.96451081	     27.93206033	     17.69247810	     89.95437384	      0.00000000	      0.00000000	      3.79856265	      6.43230923	    -14.28135005	     24.88803201	     89.95437384	      0.00000000	      0.00000000
      1.75000000	      5.07244561	     -5.37635308	      3.53434026	      0.86633206	      0.90113903	      1.41098441	     -5.98028878	      4.70090010	    -17.07348378	    -18.22953973	     -0.31816549	     12.13057841	      1.84475486	     -3.07741765	     19.39094138	      5.43169992	      9.48070803	    -43.21875790	     -0.75430962	      4.90814947	      2.28914036	    -15.25744547	     -6.94506298	      7.42321719	      5.99564328	      8.49249503	    -15.08431472	     27.87866382	     18.10545849	     89.95437384	      0.00000000	      0.00000000	      3.21713155	      6.45412449	    -14.50208262	     22.74251888	     89.95437384	      0.00000000	      0.00000000
